<svg width="259" height="259" viewBox="0 0 259 259" fill="none" xmlns="http://www.w3.org/2000/svg">
<mask id="mask0_61_329" style="mask-type:alpha" maskUnits="userSpaceOnUse" x="0" y="0" width="259" height="259">
<rect width="258.329" height="258.329" fill="#D9D9D9"/>
</mask>
<g mask="url(#mask0_61_329)">
<path d="M67.0662 226.038C60.3963 226.038 54.7268 223.743 50.0579 219.155C45.3892 214.567 43.0548 208.995 43.0548 202.44V56.3025C43.0548 49.6326 45.3892 43.9632 50.0579 39.2942C54.7268 34.6255 60.3963 32.2911 67.0662 32.2911H178.843V189.607H67.0662C63.4645 189.607 60.3561 190.833 57.741 193.286C55.126 195.739 53.8185 198.778 53.8185 202.404C53.8185 206.03 55.126 209.081 57.741 211.558C60.3561 214.035 63.4645 215.274 67.0662 215.274H204.51V53.8185H215.274V226.038H67.0662ZM90.2496 178.843H168.079V43.0548H90.2496V178.843ZM79.4859 178.843V43.0548H67.0662C63.3127 43.0548 60.1664 44.3623 57.6272 46.9774C55.0881 49.5924 53.8185 52.7008 53.8185 56.3025V183.211C55.7504 181.982 57.8088 180.947 59.9939 180.106C62.1787 179.264 64.5362 178.843 67.0662 178.843H79.4859Z" fill="#1C1B1F"/>
</g>
</svg>
