<svg width="65" height="65" viewBox="0 0 65 65" fill="none" xmlns="http://www.w3.org/2000/svg">
<mask id="mask0_37_463" style="mask-type:alpha" maskUnits="userSpaceOnUse" x="0" y="0" width="65" height="65">
<rect width="65" height="65" fill="#D9D9D9"/>
</mask>
<g mask="url(#mask0_37_463)">
<path d="M13.5417 59.5833C12.0521 59.5833 10.7769 59.053 9.71615 57.9922C8.65538 56.9314 8.125 55.6563 8.125 54.1667V16.25C8.125 14.7604 8.65538 13.4852 9.71615 12.4245C10.7769 11.3637 12.0521 10.8333 13.5417 10.8333H16.25V5.41667H21.6667V10.8333H43.3333V5.41667H48.75V10.8333H51.4583C52.9479 10.8333 54.2231 11.3637 55.2839 12.4245C56.3446 13.4852 56.875 14.7604 56.875 16.25V29.7917H51.4583V27.0833H13.5417V54.1667H32.5V59.5833H13.5417ZM13.5417 21.6667H51.4583V16.25H13.5417V21.6667ZM37.9167 59.5833V51.2552L52.8802 36.3594C53.2865 35.9531 53.7378 35.6597 54.2344 35.4792C54.7309 35.2986 55.2274 35.2083 55.724 35.2083C56.2656 35.2083 56.7847 35.3099 57.2812 35.513C57.7778 35.7162 58.2292 36.0208 58.6354 36.4271L61.1406 38.9323C61.5017 39.3385 61.7839 39.7899 61.987 40.2865C62.1901 40.783 62.2917 41.2795 62.2917 41.776C62.2917 42.2726 62.2014 42.7804 62.0208 43.2995C61.8403 43.8186 61.5469 44.2813 61.1406 44.6875L46.2448 59.5833H37.9167ZM41.9792 55.5208H44.5521L52.7448 47.2604L51.526 45.974L50.2396 44.7552L41.9792 52.9479V55.5208ZM51.526 45.974L50.2396 44.7552L52.7448 47.2604L51.526 45.974Z" fill="#1C1B1F"/>
</g>
</svg>
