<svg width="162" height="156" viewBox="0 0 162 156" fill="none" xmlns="http://www.w3.org/2000/svg">
<path d="M123.5 13.9657H26.0404C13.3155 13.9657 3 24.2812 3 37.0061V83.2923C3 96.0172 13.3155 106.333 26.0404 106.333H123.5C136.225 106.333 146.541 96.0172 146.541 83.2923V37.0061C146.541 24.2812 136.225 13.9657 123.5 13.9657Z" fill="#FFCDCD" stroke="black" stroke-width="4.10703" stroke-miterlimit="10"/>
<path d="M28.135 13.9658L32.6527 3H55.8164L58.9788 13.9658H28.135Z" stroke="black" stroke-width="4.10703" stroke-miterlimit="10"/>
<path d="M93.2315 80.746H158.615C158.615 80.746 164.981 136.56 125.923 153.194C125.923 153.194 88.4262 138.45 93.2315 80.746Z" fill="#FFECA8" stroke="black" stroke-width="4.10703" stroke-miterlimit="10"/>
<path d="M77.4192 99.967C99.4212 99.967 117.257 82.1308 117.257 60.1288C117.257 38.1268 99.4212 20.2906 77.4192 20.2906C55.4172 20.2906 37.5811 38.1268 37.5811 60.1288C37.5811 82.1308 55.4172 99.967 77.4192 99.967Z" fill="white" stroke="black" stroke-width="4.10703" stroke-miterlimit="10"/>
<path d="M77.4193 85.8799C91.6412 85.8799 103.17 74.3507 103.17 60.1288C103.17 45.9069 91.6412 34.3777 77.4193 34.3777C63.1974 34.3777 51.6682 45.9069 51.6682 60.1288C51.6682 74.3507 63.1974 85.8799 77.4193 85.8799Z" fill="#FF9090" stroke="black" stroke-width="4.10703" stroke-miterlimit="10"/>
<path d="M127.648 110.563C130.234 110.563 132.33 108.467 132.33 105.881C132.33 103.295 130.234 101.199 127.648 101.199C125.062 101.199 122.966 103.295 122.966 105.881C122.966 108.467 125.062 110.563 127.648 110.563Z" fill="#231F20" stroke="black" stroke-width="4.10703" stroke-miterlimit="10"/>
<path d="M125.923 110.563L122.966 129.004H132.33L129.907 110.563H125.923Z" fill="#231F20" stroke="black" stroke-width="4.10703" stroke-miterlimit="10"/>
</svg>
